<svg width="1800" height="855" viewBox="0 0 1800 855" fill="none" xmlns="http://www.w3.org/2000/svg">
<path d="M668.948 50.9955H1745.95L1125.69 693.815H954.645L1088.1 554.725H995.996L856.906 693.815H683.985L1125.69 248.353H1268.54L1058.02 462.625H1172.68L1467.77 167.53L740.372 165.65L668.948 242.714H1065.54L625.717 693.815H39.2852L323.104 408.117H469.712L304.308 577.281H565.57L806.157 336.693L379.49 331.054L668.948 50.9955Z" fill="white"/>
<path d="M668.948 50.9955H1745.95L1125.69 693.815H954.645L1088.1 554.725H995.996L856.906 693.815H683.985L1125.69 248.353H1268.54L1058.02 462.625H1172.68L1467.77 167.53L740.372 165.65L668.948 242.714H1065.54L625.717 693.815H39.2852L323.104 408.117H469.712L304.308 577.281H565.57L806.157 336.693L379.49 331.054L668.948 50.9955Z" stroke="#231F20" stroke-width="8" stroke-miterlimit="10"/>
<path d="M130.82 815.389L655.53 278.226H950.311L864.424 366.857L711.671 365.369L625.906 451.177L765.635 454.823L693.447 533.322L546.475 531.259L267.628 811.063L130.82 815.389Z" fill="#844B9D"/>
<mask id="mask0_1_47" style="mask-type:luminance" maskUnits="userSpaceOnUse" x="0" y="0" width="1800" height="855">
<path d="M0 0.000244141H1799.9V854.78H0V0.000244141Z" fill="white"/>
</mask>
<g mask="url(#mask0_1_47)">
<path d="M422.835 773.483C424.439 774.32 425.831 775.413 427.011 776.767C428.191 778.12 429.111 779.681 429.772 781.453C430.432 783.224 430.739 785.095 430.692 787.063C430.598 789.031 430.172 790.863 429.419 792.56C428.663 794.257 427.659 795.745 426.41 797.025C425.159 798.305 423.707 799.312 422.056 800.051C420.403 800.788 418.634 801.157 416.747 801.157H379.652V793.852H398.412H400.323H402.73H409.739H416.747C418.682 793.852 420.322 793.151 421.667 791.748C423.012 790.347 423.684 788.637 423.684 786.619C423.684 784.553 423.012 782.819 421.667 781.416C420.322 780.015 418.682 779.313 416.747 779.313H396.076H392.748C390.908 779.215 389.186 778.76 387.582 777.948C385.976 777.136 384.596 776.079 383.44 774.775C382.283 773.471 381.363 771.959 380.679 770.236C379.995 768.513 379.652 766.693 379.652 764.775V764.332C379.699 762.364 380.1 760.531 380.856 758.833C381.611 757.136 382.626 755.648 383.9 754.368C385.175 753.091 386.636 752.081 388.29 751.343C389.94 750.604 391.711 750.236 393.599 750.236H427.578V757.541H425.171H414.694H410.376H393.599C391.663 757.541 390.024 758.243 388.679 759.645C387.334 761.047 386.66 762.757 386.66 764.775C386.66 766.841 387.334 768.575 388.679 769.977C390.024 771.38 391.663 772.08 393.599 772.08H400.607H403.651H417.596C419.483 772.18 421.23 772.647 422.835 773.483Z" fill="#844B9D"/>
<path d="M513.095 750.236H521.66L486.832 801.157L476.496 786.103L466.162 801.157L431.262 750.236H439.827L466.162 788.612L472.178 779.829L451.932 750.236H460.498L476.496 773.556L492.424 750.236H500.99L480.744 779.829L486.832 788.612L513.095 750.236Z" fill="#844B9D"/>
<path d="M559.884 751.342H566.113V758.649H532.559V773.187H556.273V780.419H532.559V794.958H566.113V802.265H525.551V794.958V758.649V751.342H526.755H559.884Z" fill="#844B9D"/>
<path d="M610.003 772.08C611.937 772.08 613.577 771.379 614.923 769.977C616.268 768.575 616.94 766.865 616.94 764.848C616.94 763.864 616.763 762.929 616.409 762.044C616.055 761.157 615.56 760.383 614.923 759.719C614.285 759.055 613.541 758.525 612.692 758.132C611.843 757.739 610.947 757.541 610.003 757.541H581.332V772.08H610.003ZM610.003 750.235C611.843 750.235 613.601 750.604 615.276 751.341C616.951 752.08 618.427 753.089 619.7 754.368C620.975 755.648 622.001 757.148 622.78 758.869C623.559 760.592 623.948 762.412 623.948 764.331C623.948 766.3 623.629 768.168 622.992 769.94C622.356 771.711 621.459 773.273 620.303 774.627C619.145 775.98 617.765 777.075 616.161 777.911C614.556 778.748 612.787 779.239 610.852 779.387C613.636 782.535 616.065 786.004 618.143 789.792C620.22 793.581 622.155 797.369 623.948 801.157H616.161C615.359 799.533 614.379 797.652 613.223 795.511C612.067 793.371 610.792 791.256 609.401 789.165C608.008 787.073 606.545 785.143 605.012 783.371C603.477 781.6 601.932 780.272 600.375 779.387H581.332V801.157H574.395V750.235H610.003Z" fill="#844B9D"/>
<path d="M685.182 750.236H693.748L658.92 801.157L624.02 750.236H632.585L658.92 788.612L685.182 750.236Z" fill="#844B9D"/>
<path d="M704.652 801.157H697.715V750.236H704.652V801.157Z" fill="#844B9D"/>
<path d="M761.213 750.236H768.221V801.157L726.314 765.587V793.925V801.157H721.925H719.305V793.925V750.309L761.213 785.881V750.236Z" fill="#844B9D"/>
<path d="M832.995 773.483C834.599 774.32 835.991 775.413 837.171 776.767C838.351 778.12 839.271 779.681 839.932 781.453C840.592 783.224 840.899 785.095 840.853 787.063C840.758 789.031 840.332 790.863 839.579 792.56C838.823 794.257 837.819 795.745 836.57 797.025C835.319 798.305 833.867 799.312 832.216 800.051C830.563 800.788 828.794 801.157 826.907 801.157H789.812V793.852H808.573H810.483H812.89H819.899H826.907C828.842 793.852 830.482 793.151 831.827 791.748C833.172 790.347 833.845 788.637 833.845 786.619C833.845 784.553 833.172 782.819 831.827 781.416C830.482 780.015 828.842 779.313 826.907 779.313H806.237H802.908C801.069 779.215 799.346 778.76 797.742 777.948C796.137 777.136 794.757 776.079 793.601 774.775C792.443 773.471 791.523 771.959 790.839 770.236C790.155 768.513 789.812 766.693 789.812 764.775V764.332C789.859 762.364 790.261 760.531 791.017 758.833C791.771 757.136 792.786 755.648 794.061 754.368C795.335 753.091 796.797 752.081 798.45 751.343C800.101 750.604 801.871 750.236 803.759 750.236H837.738V757.541H835.331H824.854H820.536H803.759C801.823 757.541 800.184 758.243 798.839 759.645C797.494 761.047 796.822 762.757 796.822 764.775C796.822 766.841 797.494 768.575 798.839 769.977C800.184 771.38 801.823 772.08 803.759 772.08H810.767H813.811H827.756C829.643 772.18 831.39 772.647 832.995 773.483Z" fill="#844B9D"/>
<path d="M899.257 750.236H905.486V757.543H871.931V772.081H893.593V779.313H871.931V793.925V801.157H864.922V793.925V750.236H899.257Z" fill="#844B9D"/>
<path d="M936.279 780.568L924.032 762.782L911.856 780.568H936.279ZM924.032 750.236L958.932 801.158H950.366L941.234 787.874H906.83L897.768 801.158H894.654H894.583H890.407H889.203L924.032 750.236Z" fill="#844B9D"/>
<path d="M999.919 793.925C1000.91 793.925 1001.83 793.729 1002.68 793.335C1003.53 792.941 1004.27 792.413 1004.91 791.748C1005.55 791.084 1006.04 790.309 1006.4 789.424C1006.75 788.539 1006.93 787.604 1006.93 786.619C1006.93 785.636 1006.75 784.7 1006.4 783.815C1006.04 782.929 1005.55 782.155 1004.91 781.489C1004.27 780.825 1003.53 780.297 1002.68 779.904C1001.83 779.511 1000.91 779.313 999.919 779.313H969.832V793.925H999.919ZM999.919 772.08C1001.9 772.08 1003.56 771.38 1004.91 769.977C1006.25 768.576 1006.93 766.841 1006.93 764.775C1006.93 762.757 1006.25 761.047 1004.91 759.645C1003.56 758.243 1001.9 757.543 999.919 757.543H994.468H969.832V772.08H999.919ZM1012.94 759.683C1013.46 761.109 1013.76 762.548 1013.83 764C1013.9 765.451 1013.77 766.877 1013.44 768.28C1013.11 769.681 1012.58 771.023 1011.85 772.301C1011.11 773.581 1010.21 774.713 1009.12 775.696C1011.34 777.715 1012.79 780.187 1013.47 783.113C1014.16 786.041 1013.98 788.932 1012.94 791.785C1012.42 793.213 1011.73 794.491 1010.86 795.623C1009.98 796.755 1008.98 797.739 1007.85 798.575C1006.71 799.412 1005.48 800.051 1004.13 800.493C1002.79 800.936 1001.38 801.157 999.919 801.157H962.824V750.236H994.468H999.919C1002.84 750.236 1005.49 751.096 1007.85 752.819C1010.21 754.541 1011.91 756.829 1012.94 759.683Z" fill="#844B9D"/>
<path d="M1077.36 750.236H1084.3V801.157H1083.73H1077.36V779.313H1045.93V801.157H1038.99V750.236H1045.93V772.081H1077.36V750.236Z" fill="#844B9D"/>
<path d="M1134.84 780.568L1122.59 762.782L1110.42 780.568H1134.84ZM1122.59 750.236L1157.49 801.158H1148.93L1139.8 787.874H1105.39L1096.33 801.158H1093.22H1093.15H1088.97H1087.77L1122.59 750.236Z" fill="#844B9D"/>
<path d="M1201.39 750.236H1208.32V772.081C1208.32 775.968 1207.63 779.681 1206.24 783.224C1204.84 786.767 1202.83 789.892 1200.18 792.597C1197.92 795.008 1195.34 796.915 1192.47 798.317C1189.59 799.719 1186.54 800.617 1183.34 801.011C1182.86 801.06 1182.39 801.096 1181.92 801.121C1181.45 801.147 1180.97 801.157 1180.5 801.157C1176.82 801.157 1173.27 800.42 1169.85 798.944C1166.43 797.468 1163.42 795.353 1160.82 792.597C1158.18 789.892 1156.16 786.767 1154.77 783.224C1153.38 779.681 1152.68 775.968 1152.68 772.081V750.236H1159.62V772.081C1159.62 774.984 1160.14 777.763 1161.18 780.42C1162.22 783.077 1163.73 785.439 1165.71 787.504C1167.69 789.571 1169.96 791.147 1172.5 792.228C1175.05 793.311 1177.72 793.852 1180.5 793.852C1183.29 793.852 1185.94 793.311 1188.47 792.228C1190.99 791.147 1193.24 789.571 1195.23 787.504C1197.21 785.439 1198.73 783.077 1199.79 780.42C1200.86 777.763 1201.39 774.984 1201.39 772.081V750.236Z" fill="#844B9D"/>
<path d="M1258.87 773.483C1260.47 774.32 1261.86 775.413 1263.04 776.767C1264.22 778.12 1265.14 779.681 1265.8 781.453C1266.46 783.224 1266.77 785.095 1266.72 787.063C1266.63 789.031 1266.2 790.863 1265.45 792.56C1264.69 794.257 1263.69 795.745 1262.44 797.025C1261.19 798.305 1259.74 799.312 1258.09 800.051C1256.43 800.788 1254.66 801.157 1252.78 801.157H1215.68V793.852H1234.44H1236.36H1238.76H1245.77H1252.78C1254.71 793.852 1256.35 793.151 1257.7 791.748C1259.04 790.347 1259.72 788.637 1259.72 786.619C1259.72 784.553 1259.04 782.819 1257.7 781.416C1256.35 780.015 1254.71 779.313 1252.78 779.313H1232.11H1228.78C1226.94 779.215 1225.22 778.76 1223.61 777.948C1222.01 777.136 1220.63 776.079 1219.47 774.775C1218.31 773.471 1217.39 771.959 1216.71 770.236C1216.03 768.513 1215.68 766.693 1215.68 764.775V764.332C1215.73 762.364 1216.13 760.531 1216.89 758.833C1217.64 757.136 1218.66 755.648 1219.93 754.368C1221.2 753.091 1222.67 752.081 1224.32 751.343C1225.97 750.604 1227.74 750.236 1229.63 750.236H1263.61V757.541H1261.2H1250.73H1246.41H1229.63C1227.69 757.541 1226.05 758.243 1224.71 759.645C1223.36 761.047 1222.69 762.757 1222.69 764.775C1222.69 766.841 1223.36 768.575 1224.71 769.977C1226.05 771.38 1227.69 772.08 1229.63 772.08H1236.64H1239.68H1253.63C1255.52 772.18 1257.26 772.647 1258.87 773.483Z" fill="#844B9D"/>
</g>
<path d="M784.429 737.453V755.903H778.663V737.453H784.429Z" fill="#100F0D"/>
<path d="M1166.45 741.09C1166.45 739.795 1166.92 738.684 1167.85 737.758C1168.78 736.831 1169.89 736.369 1171.19 736.372C1172.48 736.374 1173.59 736.84 1174.52 737.769C1175.45 738.699 1175.91 739.811 1175.91 741.107C1175.9 742.402 1175.44 743.513 1174.51 744.439C1173.58 745.365 1172.47 745.827 1171.17 745.825C1170.31 745.824 1169.53 745.603 1168.81 745.164C1168.09 744.743 1167.51 744.173 1167.08 743.454C1166.66 742.753 1166.45 741.965 1166.45 741.09ZM1196.39 741.144C1196.39 739.848 1196.86 738.737 1197.79 737.811C1198.72 736.885 1199.83 736.423 1201.12 736.425C1202.42 736.428 1203.53 736.894 1204.46 737.823C1205.38 738.753 1205.84 739.865 1205.84 741.161C1205.84 742.456 1205.37 743.567 1204.44 744.493C1203.51 745.419 1202.4 745.881 1201.11 745.879C1200.25 745.877 1199.46 745.657 1198.74 745.218C1198.03 744.797 1197.45 744.227 1197.01 743.508C1196.59 742.807 1196.39 742.019 1196.39 741.144Z" fill="#100F0D"/>
</svg>
