<?xml version="1.0" encoding="UTF-8" standalone="no"?>
<!-- Created with Inkscape (http://www.inkscape.org/) -->

<svg version="1.1" id="svg2" width="1799.8933" height="854.78003" viewBox="0 0 1799.8933 854.78003"
   sodipodi:docname="Swervin's Fab Haus Master File.ai" xmlns:inkscape="http://www.inkscape.org/namespaces/inkscape"
   xmlns:sodipodi="http://sodipodi.sourceforge.net/DTD/sodipodi-0.dtd" xmlns="http://www.w3.org/2000/svg"
   xmlns:svg="http://www.w3.org/2000/svg">
   <defs id="defs6">
      <clipPath clipPathUnits="userSpaceOnUse" id="clipPath28">
         <path d="M 0,641.085 H 1349.922 V 0 H 0 Z" id="path26" />
      </clipPath>
   </defs>
   <sodipodi:namedview id="namedview4" pagecolor="#ffffff" bordercolor="#000000" borderopacity="0.25"
      inkscape:showpageshadow="2" inkscape:pageopacity="0.0" inkscape:pagecheckerboard="0"
      inkscape:deskcolor="#d1d1d1" />
   <g id="g8" inkscape:groupmode="layer" inkscape:label="Swervin's Fab Haus Master File"
      transform="matrix(1.3333333,0,0,-1.3333333,0,854.78)">
      <g id="g10" transform="translate(501.712,602.8383)">
         <path
            d="M 0,0 H 807.753 L 342.555,-482.115 H 214.273 l 100.088,104.318 H 245.286 L 140.969,-482.115 H 11.278 l 331.277,334.097 H 449.692 L 291.806,-308.722 h 85.991 L 599.119,-87.401 53.568,-85.991 0,-143.789 H 297.445 L -32.423,-482.115 h -439.824 l 212.864,214.274 h 109.956 L -273.48,-394.714 h 195.947 l 180.44,180.441 -320,4.229 z"
            style="fill:#ffffff;fill-opacity:1;fill-rule:nonzero;stroke:none" id="path12" />
      </g>
      <g id="g14" transform="translate(501.712,602.8383)">
         <path
            d="M 0,0 H 807.753 L 342.555,-482.115 H 214.273 l 100.088,104.318 H 245.286 L 140.969,-482.115 H 11.278 l 331.277,334.097 H 449.692 L 291.806,-308.722 h 85.991 L 599.119,-87.401 53.568,-85.991 0,-143.789 H 297.445 L -32.423,-482.115 h -439.824 l 212.864,214.274 h 109.956 L -273.48,-394.714 h 195.947 l 180.44,180.441 -320,4.229 z"
            style="fill:none;stroke:#231f20;stroke-width:6;stroke-linecap:butt;stroke-linejoin:miter;stroke-miterlimit:10;stroke-dasharray:none;stroke-opacity:1"
            id="path16" />
      </g>
      <g id="g18" transform="translate(98.1154,29.5437)">
         <path
            d="M 0,0 393.532,402.872 H 614.618 L 550.203,336.399 435.638,337.515 371.314,273.159 476.111,270.424 421.97,211.55 311.741,213.097 102.606,3.244 Z"
            style="fill:#11100e;fill-opacity:1;fill-rule:nonzero;stroke:none" id="path20" />
      </g>
      <g id="g22">
         <g id="g24" clip-path="url(#clipPath28)">
            <g id="g30" transform="translate(317.127,60.9731)">
               <path
                  d="m 0,0 c 1.203,-0.628 2.247,-1.448 3.132,-2.463 0.885,-1.015 1.575,-2.186 2.071,-3.515 0.495,-1.328 0.725,-2.731 0.69,-4.207 -0.071,-1.476 -0.39,-2.85 -0.955,-4.123 -0.567,-1.273 -1.32,-2.389 -2.257,-3.349 -0.938,-0.96 -2.027,-1.715 -3.265,-2.269 -1.24,-0.553 -2.567,-0.83 -3.982,-0.83 h -27.821 v 5.479 h 14.07 1.433 1.805 5.257 5.256 c 1.451,0 2.681,0.526 3.69,1.578 1.009,1.051 1.513,2.333 1.513,3.847 0,1.549 -0.504,2.85 -1.513,3.902 -1.009,1.051 -2.239,1.577 -3.69,1.577 h -15.503 -2.496 c -1.38,0.074 -2.672,0.415 -3.875,1.024 -1.204,0.609 -2.239,1.402 -3.106,2.38 -0.868,0.978 -1.558,2.112 -2.071,3.404 -0.513,1.292 -0.77,2.657 -0.77,4.096 v 0.332 c 0.035,1.476 0.336,2.851 0.903,4.124 0.566,1.273 1.327,2.389 2.283,3.349 0.956,0.958 2.052,1.715 3.292,2.269 1.238,0.554 2.566,0.83 3.982,0.83 H 3.557 V 11.956 H 1.752 -6.106 -9.344 -21.927 c -1.452,0 -2.681,-0.526 -3.69,-1.578 -1.009,-1.051 -1.514,-2.334 -1.514,-3.847 0,-1.55 0.505,-2.85 1.514,-3.902 1.009,-1.052 2.238,-1.577 3.69,-1.577 h 5.256 2.283 10.459 C -2.514,0.977 -1.204,0.627 0,0"
                  style="fill:#100f0d;fill-opacity:1;fill-rule:nonzero;stroke:none" id="path32" />
            </g>
            <g id="g34" transform="translate(384.8208,78.4082)">
               <path
                  d="M 0,0 H 6.424 L -19.697,-38.191 -27.449,-26.9 -35.2,-38.191 -61.375,0 h 6.424 l 19.751,-28.782 4.512,6.587 L -45.872,0 h 6.424 L -27.449,-17.49 -15.503,0 h 6.424 l -15.184,-22.195 4.566,-6.587 z"
                  style="fill:#100f0d;fill-opacity:1;fill-rule:nonzero;stroke:none" id="path36" />
            </g>
            <g id="g38" transform="translate(419.9149,77.5784)">
               <path
                  d="m 0,0 h 4.672 v -5.48 h -25.166 v -10.904 h 17.786 v -5.424 H -20.494 V -32.712 H 4.672 v -5.48 H -25.75 v 5.48 V -5.48 0 h 0.903 z"
                  style="fill:#100f0d;fill-opacity:1;fill-rule:nonzero;stroke:none" id="path40" />
            </g>
            <g id="g42" transform="translate(457.5037,62.0247)">
               <path
                  d="M 0,0 C 1.451,0 2.681,0.526 3.69,1.577 4.699,2.629 5.203,3.911 5.203,5.424 5.203,6.162 5.07,6.863 4.805,7.527 4.539,8.192 4.168,8.773 3.69,9.271 3.212,9.769 2.654,10.166 2.017,10.461 1.38,10.756 0.708,10.904 0,10.904 H -21.503 V 0 Z m 0,16.384 c 1.38,0 2.699,-0.277 3.955,-0.83 C 5.211,15 6.318,14.243 7.273,13.284 8.229,12.324 8.999,11.199 9.583,9.908 10.167,8.616 10.459,7.251 10.459,5.812 10.459,4.335 10.22,2.934 9.742,1.605 9.265,0.277 8.592,-0.895 7.725,-1.91 6.857,-2.925 5.822,-3.746 4.619,-4.373 3.415,-5.001 2.088,-5.369 0.637,-5.48 c 2.088,-2.361 3.91,-4.963 5.468,-7.804 1.558,-2.842 3.009,-5.683 4.354,-8.524 h -5.84 c -0.602,1.218 -1.337,2.629 -2.204,4.235 -0.867,1.605 -1.823,3.191 -2.866,4.759 -1.045,1.569 -2.142,3.017 -3.292,4.346 -1.151,1.328 -2.31,2.324 -3.478,2.988 h -14.282 v -16.328 h -5.203 v 38.192 z"
                  style="fill:#100f0d;fill-opacity:1;fill-rule:nonzero;stroke:none" id="path44" />
            </g>
            <g id="g46" transform="translate(513.8888,78.4082)">
               <path d="M 0,0 H 6.424 L -19.697,-38.191 -45.872,0 h 6.424 l 19.751,-28.782 z"
                  style="fill:#100f0d;fill-opacity:1;fill-rule:nonzero;stroke:none" id="path48" />
            </g>
            <path d="m 528.489,40.217 h -5.203 v 38.191 h 5.203 z"
               style="fill:#100f0d;fill-opacity:1;fill-rule:nonzero;stroke:none" id="path50" />
            <g id="g52" transform="translate(570.9093,78.4082)">
               <path
                  d="m 0,0 h 5.256 v -38.191 l -31.43,26.678 v -21.254 -5.424 h -3.292 -1.965 v 5.424 32.712 L 0,-26.734 Z"
                  style="fill:#100f0d;fill-opacity:1;fill-rule:nonzero;stroke:none" id="path54" />
            </g>
            <g id="g56" transform="translate(624.7474,60.9731)">
               <path
                  d="m 0,0 c 1.203,-0.628 2.247,-1.448 3.132,-2.463 0.885,-1.015 1.575,-2.186 2.071,-3.515 0.495,-1.328 0.725,-2.731 0.69,-4.207 -0.071,-1.476 -0.39,-2.85 -0.955,-4.123 -0.567,-1.273 -1.32,-2.389 -2.257,-3.349 -0.938,-0.96 -2.027,-1.715 -3.265,-2.269 -1.24,-0.553 -2.567,-0.83 -3.982,-0.83 h -27.821 v 5.479 h 14.07 1.433 1.805 5.257 5.256 c 1.451,0 2.681,0.526 3.69,1.578 1.009,1.051 1.513,2.333 1.513,3.847 0,1.549 -0.504,2.85 -1.513,3.902 -1.009,1.051 -2.239,1.577 -3.69,1.577 h -15.503 -2.496 c -1.38,0.074 -2.672,0.415 -3.875,1.024 -1.204,0.609 -2.239,1.402 -3.106,2.38 -0.868,0.978 -1.558,2.112 -2.071,3.404 -0.513,1.292 -0.77,2.657 -0.77,4.096 v 0.332 c 0.035,1.476 0.336,2.851 0.903,4.124 0.566,1.273 1.327,2.389 2.283,3.349 0.956,0.958 2.052,1.715 3.292,2.269 1.238,0.554 2.566,0.83 3.982,0.83 H 3.557 V 11.956 H 1.752 -6.106 -9.344 -21.927 c -1.452,0 -2.681,-0.526 -3.69,-1.578 -1.009,-1.051 -1.513,-2.334 -1.513,-3.847 0,-1.55 0.504,-2.85 1.513,-3.902 1.009,-1.052 2.238,-1.577 3.69,-1.577 h 5.256 2.283 10.459 C -2.514,0.977 -1.204,0.627 0,0"
                  style="fill:#100f0d;fill-opacity:1;fill-rule:nonzero;stroke:none" id="path58" />
            </g>
            <g id="g60" transform="translate(674.4423,78.4082)">
               <path
                  d="m 0,0 h 4.672 v -5.48 h -25.166 v -10.904 h 16.246 v -5.424 h -16.246 v -10.959 -5.424 h -5.257 V -32.767 0 Z"
                  style="fill:#100f0d;fill-opacity:1;fill-rule:nonzero;stroke:none" id="path62" />
            </g>
            <g id="g64" transform="translate(702.2094,55.6593)">
               <path
                  d="M 0,0 -9.185,13.339 -18.317,0 Z M -9.185,22.749 16.99,-15.443 H 10.565 L 3.716,-5.48 h -25.803 l -6.796,-9.963 h -2.336 -0.053 -3.132 -0.903 z"
                  style="fill:#100f0d;fill-opacity:1;fill-rule:nonzero;stroke:none" id="path66" />
            </g>
            <g id="g68" transform="translate(749.9393,45.6411)">
               <path
                  d="M 0,0 C 0.743,0 1.433,0.147 2.071,0.443 2.708,0.738 3.265,1.134 3.743,1.633 4.22,2.131 4.592,2.712 4.858,3.376 5.123,4.04 5.256,4.741 5.256,5.48 5.256,6.217 5.123,6.919 4.858,7.583 4.592,8.247 4.22,8.828 3.743,9.327 3.265,9.825 2.708,10.221 2.071,10.516 1.433,10.811 0.743,10.959 0,10.959 H -22.565 V 0 Z m 0,16.384 c 1.486,0 2.734,0.525 3.743,1.577 1.009,1.051 1.513,2.352 1.513,3.902 0,1.513 -0.504,2.796 -1.513,3.847 C 2.734,26.762 1.486,27.287 0,27.287 H -4.088 -22.565 V 16.384 Z m 9.769,9.298 c 0.389,-1.07 0.61,-2.149 0.663,-3.238 0.054,-1.088 -0.045,-2.158 -0.292,-3.21 C 9.892,18.183 9.494,17.177 8.946,16.218 8.397,15.258 7.715,14.409 6.902,13.672 8.565,12.158 9.653,10.304 10.167,8.109 10.68,5.913 10.547,3.745 9.769,1.605 9.379,0.534 8.857,-0.424 8.203,-1.273 7.547,-2.122 6.795,-2.86 5.946,-3.487 5.096,-4.115 4.168,-4.594 3.159,-4.926 2.15,-5.258 1.096,-5.424 0,-5.424 H -27.821 V 32.767 H -4.088 0 c 2.194,0 4.176,-0.645 5.946,-1.937 1.769,-1.292 3.044,-3.008 3.823,-5.148"
                  style="fill:#100f0d;fill-opacity:1;fill-rule:nonzero;stroke:none" id="path70" />
            </g>
            <g id="g72" transform="translate(808.0221,78.4082)">
               <path
                  d="M 0,0 H 5.203 V -38.191 H 4.779 0 v 16.383 h -23.573 v -16.383 h -5.203 V 0 h 5.203 V -16.384 H 0 Z"
                  style="fill:#100f0d;fill-opacity:1;fill-rule:nonzero;stroke:none" id="path74" />
            </g>
            <g id="g76" transform="translate(851.1323,55.6593)">
               <path
                  d="M 0,0 -9.185,13.339 -18.317,0 Z M -9.185,22.749 16.99,-15.443 H 10.565 L 3.717,-5.48 h -25.803 l -6.796,-9.963 h -2.336 -0.053 -3.133 -0.902 z"
                  style="fill:#100f0d;fill-opacity:1;fill-rule:nonzero;stroke:none" id="path78" />
            </g>
            <g id="g80" transform="translate(901.0397,78.4082)">
               <path
                  d="m 0,0 h 5.203 v -16.384 c 0,-2.915 -0.523,-5.7 -1.566,-8.357 -1.044,-2.657 -2.557,-5.001 -4.539,-7.03 -1.699,-1.808 -3.629,-3.238 -5.788,-4.29 -2.159,-1.051 -4.442,-1.725 -6.848,-2.02 -0.355,-0.037 -0.709,-0.064 -1.062,-0.083 -0.354,-0.019 -0.709,-0.027 -1.062,-0.027 -2.761,0 -5.425,0.553 -7.99,1.66 -2.567,1.107 -4.823,2.693 -6.77,4.76 -1.983,2.029 -3.496,4.373 -4.539,7.03 -1.045,2.657 -1.566,5.442 -1.566,8.357 V 0 h 5.203 v -16.384 c 0,-2.177 0.389,-4.261 1.167,-6.254 0.779,-1.993 1.912,-3.764 3.398,-5.313 1.487,-1.55 3.186,-2.732 5.097,-3.543 1.912,-0.812 3.911,-1.218 6,-1.218 2.088,0 4.079,0.406 5.973,1.218 1.893,0.811 3.583,1.993 5.07,3.543 1.487,1.549 2.628,3.32 3.425,5.313 0.796,1.993 1.194,4.077 1.194,6.254 z"
                  style="fill:#100f0d;fill-opacity:1;fill-rule:nonzero;stroke:none" id="path82" />
            </g>
            <g id="g84" transform="translate(944.1511,60.9731)">
               <path
                  d="m 0,0 c 1.203,-0.628 2.247,-1.448 3.133,-2.463 0.883,-1.015 1.574,-2.186 2.07,-3.515 0.495,-1.328 0.725,-2.731 0.69,-4.207 -0.071,-1.476 -0.389,-2.85 -0.956,-4.123 -0.566,-1.273 -1.319,-2.389 -2.256,-3.349 -0.938,-0.96 -2.027,-1.715 -3.265,-2.269 -1.24,-0.553 -2.567,-0.83 -3.982,-0.83 h -27.821 v 5.479 h 14.07 1.434 1.805 5.256 5.256 c 1.451,0 2.681,0.526 3.69,1.578 1.009,1.051 1.513,2.333 1.513,3.847 0,1.549 -0.504,2.85 -1.513,3.902 -1.009,1.051 -2.239,1.577 -3.69,1.577 h -15.503 -2.496 c -1.38,0.074 -2.672,0.415 -3.875,1.024 -1.204,0.609 -2.239,1.402 -3.106,2.38 -0.868,0.978 -1.558,2.112 -2.071,3.404 -0.513,1.292 -0.77,2.657 -0.77,4.096 v 0.332 c 0.035,1.476 0.336,2.851 0.903,4.124 0.566,1.273 1.327,2.389 2.283,3.349 0.955,0.958 2.052,1.715 3.292,2.269 1.238,0.554 2.566,0.83 3.981,0.83 H 3.557 V 11.956 H 1.752 -6.105 -9.344 -21.928 c -1.451,0 -2.681,-0.526 -3.689,-1.578 -1.009,-1.051 -1.513,-2.334 -1.513,-3.847 0,-1.55 0.504,-2.85 1.513,-3.902 1.008,-1.052 2.238,-1.577 3.689,-1.577 h 5.257 2.283 10.459 C -2.513,0.977 -1.204,0.627 0,0"
                  style="fill:#100f0d;fill-opacity:1;fill-rule:nonzero;stroke:none" id="path86" />
            </g>
         </g>
      </g>
      <text xml:space="preserve" transform="matrix(1,0,0,-1,580.0659,45.6406)"
         style="font-variant:normal;font-weight:normal;font-stretch:normal;font-size:55.3501px;font-family:'Myriad Pro';-inkscape-font-specification:MyriadPro-Regular;writing-mode:lr-tb;fill:#100f0d;fill-opacity:1;fill-rule:nonzero;stroke:none"
         id="text90">
         <tspan x="0" y="0" id="tspan88">'</tspan>
      </text>
      <text xml:space="preserve" transform="matrix(-0.00178335,-0.99603941,-0.99999841,0.00179055,872.848,92.9125)"
         style="font-variant:normal;font-weight:normal;font-stretch:normal;font-size:55.5696px;font-family:'Myriad Pro';-inkscape-font-specification:MyriadPro-Regular;writing-mode:lr-tb;fill:#100f0d;fill-opacity:1;fill-rule:nonzero;stroke:none"
         id="text94">
         <tspan x="0" y="0" id="tspan92">:</tspan>
      </text>
   </g>
</svg>